<?xml version="1.0" encoding="UTF-8" standalone="no"?><!DOCTYPE svg PUBLIC "-//W3C//DTD SVG 1.1//EN" "http://www.w3.org/Graphics/SVG/1.1/DTD/svg11.dtd"><svg width="100%" height="100%" viewBox="0 0 131 131" version="1.1" xmlns="http://www.w3.org/2000/svg" xmlns:xlink="http://www.w3.org/1999/xlink" xml:space="preserve" xmlns:serif="http://www.serif.com/" style="fill-rule:evenodd;clip-rule:evenodd;stroke-linejoin:round;stroke-miterlimit:2;"><g><path d="M101.083,84.75c0,14.25 -10.095,26.425 -28.52,29.629l-0,16.334l-15.7,-0l-0,-15.2c-10.742,-0.488 -21.15,-3.38 -27.238,-6.892l4.808,-18.75c6.73,3.692 16.18,7.054 26.596,7.054c9.129,0 15.379,-3.533 15.379,-9.937c0,-6.088 -5.125,-9.955 -16.987,-13.95c-17.133,-5.771 -28.838,-13.775 -28.838,-29.305c0,-14.108 9.938,-25.145 27.08,-28.52l-0,-15.213l15.695,0l0,14.096c10.734,0.479 17.955,2.717 23.234,5.283l-4.646,18.117c-4.154,-1.767 -11.529,-5.463 -23.067,-5.463c-10.417,0 -13.779,4.484 -13.779,8.975c-0,5.284 5.608,8.642 19.221,13.78c19.079,6.72 26.762,15.533 26.762,29.962Z" style="fill:#3c7a17;fill-rule:nonzero;"/></g></svg>