<?xml version="1.0" encoding="utf-8"?><!DOCTYPE svg PUBLIC "-//W3C//DTD SVG 1.1//EN" "http://www.w3.org/Graphics/SVG/1.1/DTD/svg11.dtd"><svg version="1.1" xmlns="http://www.w3.org/2000/svg" xmlns:xlink="http://www.w3.org/1999/xlink" width="24" height="24" viewBox="0 0 24 24" data-tags="wheelchair_pickup"><g fill="#444" transform="scale(0.0234375 0.0234375)"><path d="M192 170q0-34 25-59t61-25q34 0 59 25t25 59q0 36-25 61t-59 25q-36 0-61-25t-25-61zM426 468v-84q0-36-25-61t-59-25h-128q-36 0-61 25t-25 61v256h86v298h148v-4q-40-40-62-94t-22-114q0-84 41-152t107-106zM704 726q0 34-17 63t-46 47-65 18-65-18-46-47-17-63q0-36 18-65t46-45v-92q-64 20-107 75t-43 127q0 58 29 107t78 77 107 28 107-28 78-77 29-107h-86zM834 598h-194v-256h-86v340h234l106 158 70-46z" /></g></svg>