<?xml version="1.0" encoding="utf-8"?><!DOCTYPE svg PUBLIC "-//W3C//DTD SVG 1.1//EN" "http://www.w3.org/Graphics/SVG/1.1/DTD/svg11.dtd"><svg version="1.1" xmlns="http://www.w3.org/2000/svg" xmlns:xlink="http://www.w3.org/1999/xlink" width="25.454" height="28" viewBox="0 0 25.454 28" data-code="61843" data-tags="wheelchair"><g fill="#444" transform="scale(0.02734375 0.02734375)"><path d="M584.571 678.286l58.286 116.571c-44 136-170.857 229.143-313.714 229.143-181.143 0-329.143-148-329.143-329.143 0-138.286 86.857-261.714 216.571-309.143l9.714 74.857c-93.143 41.143-153.143 132.571-153.143 234.286 0 141.143 114.857 256 256 256 146.857 0 265.714-125.714 255.429-272.571zM897.714 735.429l33.143 65.143-146.286 73.143c-5.143 2.857-10.857 4-16.571 4-13.714 0-26.857-8-32.571-20l-136.571-272.571h-269.714c-18.286 0-34.286-14.286-36.571-32.571l-54.857-445.143c-0.571-5.714 1.714-18.286 3.429-24 10.857-39.429 47.429-65.143 88-65.143 50.286 0 91.429 41.143 91.429 91.429 0 52-45.714 96.571-98.286 90.857l21.143 165.143h241.714v73.143h-232.571l9.143 73.143h260c13.714 0 26.857 8 32.571 20l130.286 260z" /></g></svg>