<?xml version="1.0" encoding="utf-8"?><!DOCTYPE svg PUBLIC "-//W3C//DTD SVG 1.1//EN" "http://www.w3.org/Graphics/SVG/1.1/DTD/svg11.dtd"><svg version="1.1" xmlns="http://www.w3.org/2000/svg" xmlns:xlink="http://www.w3.org/1999/xlink" width="24.031999999999996" height="28" viewBox="0 0 24.031999999999996 28" data-code="62107" data-tags="wheelchair-alt"><g fill="#444" transform="scale(0.02734375 0.02734375)"><path d="M821.714 464.571c12 12.571 18.286 29.714 16.571 46.857l-25.143 314.857c-2.857 32-29.143 56-60.571 56-1.714 0-3.429 0-5.143-0.571-33.714-2.286-58.286-32-56-65.143l20-245.143-81.714 4.571c20 41.143 31.429 88 31.429 137.143 0 82.286-32 157.143-84.571 212.571l-78.286-78.286c32-35.429 52-82.857 52-134.286 0-110.857-89.714-200.571-200-200.571-52 0-98.857 20-134.857 52.571l-78.286-78.857c44-41.714 100-70.286 162.286-80.571l150.857-171.429-85.143-49.714-103.429 92c-25.143 22.857-63.429 20.571-85.714-4.571s-20-63.429 4.571-85.714l136.571-121.714c19.429-17.714 48-20.571 70.857-6.857 278.286 161.714 278.857 161.714 278.857 161.714 14.857 8.571 23.429 23.429 27.429 38.857 5.714 22.286 1.714 47.429-14.857 66.857l-117.143 132.571 212-11.429c17.714-1.143 34.857 5.143 47.429 18.286zM708.571 203.429c-56 0-101.714-45.143-101.714-101.714 0-56 45.714-101.714 101.714-101.714 56.571 0 102.286 45.714 102.286 101.714 0 56.571-45.714 101.714-102.286 101.714zM350.286 913.143c41.143 0 80-13.143 112-34.857l79.429 79.429c-52.571 41.714-119.429 66.286-191.429 66.286-172 0-311.429-139.429-311.429-310.857 0-72.571 24.571-138.857 66.286-192l79.429 79.429c-21.714 32-34.286 70.857-34.286 112.571 0 110.286 89.714 200 200 200z" /></g></svg>